<?xml version="1.0" encoding="utf-8"?>
<!-- Generator: Adobe Illustrator 16.0.0, SVG Export Plug-In . SVG Version: 6.00 Build 0)  -->
<!DOCTYPE svg PUBLIC "-//W3C//DTD SVG 1.1//EN" "http://www.w3.org/Graphics/SVG/1.1/DTD/svg11.dtd">
<svg version="1.1" id="Layer_1" xmlns="http://www.w3.org/2000/svg" xmlns:xlink="http://www.w3.org/1999/xlink" x="0px" y="0px"
	 width="30px" height="300px" viewBox="0 0 30 300" enable-background="new 0 0 30 300" xml:space="preserve">
<g id="mail">
	<g>
		<polygon fill="#FFFFFF" points="10.049,7.161 20,2.449 20,0 0,0 0,2.441 		"/>
		<polygon fill="#FFFFFF" points="10.054,9.924 0,5.2 0,15 20,15 20,5.215 		"/>
	</g>
</g>
<g id="map_x5F_pin_x5F_fill">
	<g>
		<g>
			<path fill="#FFFFFF" d="M21.649,202.7c-3.688-3.688-9.665-3.688-13.354,0c-3.689,3.688-3.689,9.669,0,13.354
				c0,0,6.673,6.545,6.673,14.1c0-7.555,6.68-14.1,6.68-14.1C25.338,212.369,25.338,206.388,21.649,202.7z M14.969,213.16
				c-2.084,0-3.774-1.689-3.774-3.777s1.689-3.777,3.774-3.777c2.092,0,3.781,1.689,3.781,3.777S17.061,213.16,14.969,213.16z"/>
		</g>
	</g>
</g>
<g id="dial">
	<g>
		<circle fill="#FFFFFF" cx="9.35" cy="109.93" r="2.463"/>
		<path fill="#FFFFFF" d="M17.08,103.908c-0.212,0.173-0.469,0.289-0.765,0.289c-0.679,0-1.231-0.549-1.231-1.231
			c0-0.298,0.12-0.562,0.298-0.779c-1.366-1.053-3.021-1.763-4.824-1.987c-0.062,0.621-0.567,1.111-1.208,1.111
			c-0.64,0-1.152-0.496-1.207-1.125c-1.828,0.236-3.492,0.958-4.87,2.049c0.156,0.207,0.267,0.452,0.267,0.731
			c0,0.683-0.548,1.231-1.231,1.231c-0.274,0-0.52-0.106-0.724-0.26c-1.287,1.665-2.085,3.728-2.085,5.993
			c0,5.44,4.411,9.851,9.851,9.851c5.44,0,9.851-4.411,9.851-9.851C19.201,107.643,18.393,105.57,17.08,103.908z M9.35,114.855
			c-2.72,0-4.925-2.205-4.925-4.925c0-1.361,0.551-2.59,1.443-3.482l3.482-3.482l3.478,3.478c0.895,0.892,1.448,2.126,1.448,3.487
			C14.276,112.652,12.07,114.855,9.35,114.855z"/>
	</g>
</g>
</svg>
