<?xml version="1.0" encoding="utf-8"?>
<!-- Generator: Adobe Illustrator 16.0.0, SVG Export Plug-In . SVG Version: 6.00 Build 0)  -->
<!DOCTYPE svg PUBLIC "-//W3C//DTD SVG 1.1//EN" "http://www.w3.org/Graphics/SVG/1.1/DTD/svg11.dtd">
<svg version="1.1" id="Layer_1" xmlns="http://www.w3.org/2000/svg" xmlns:xlink="http://www.w3.org/1999/xlink" x="0px" y="0px"
	 width="100px" height="1300px" viewBox="0 0 100 1300" enable-background="new 0 0 100 1300" xml:space="preserve">
<g>
	<g>
		<path fill="#FFFFFF" d="M50,0C22.386,0,0,22.386,0,50s22.386,50,50,50s50-22.386,50-50S77.614,0,50,0z M74,69H24V44.826
			L49.134,56.48L74,44.863V69z M74,38.041L49.122,49.663L24,38.022V32h50V38.041z"/>
	</g>
</g>
<g>
	<g>
		<path fill-rule="evenodd" clip-rule="evenodd" fill="#CCCCCC" d="M50,250c-27.614,0-50,22.386-50,50c0,27.614,22.386,50,50,50
			s50-22.387,50-50C100,272.386,77.614,250,50,250z M50,274c5.246,0,9.5,4.282,9.5,9.562s-4.254,9.562-9.5,9.562
			c-5.247,0-9.5-4.282-9.5-9.562S44.753,274,50,274z M62.666,325H37.333c-3.501,0-6.333-2.852-6.333-6.375
			c0-10.559,8.51-19.125,19-19.125c10.49,0,19,8.567,19,19.125C69,322.149,66.168,325,62.666,325z"/>
	</g>
</g>
<g>
	<g>
		<path fill-rule="evenodd" clip-rule="evenodd" fill="#CCCCCC" d="M50,530.25c-10.34,0-18.75,8.41-18.75,18.75
			s8.41,18.75,18.75,18.75s18.75-8.41,18.75-18.75S60.34,530.25,50,530.25z M37.5,561.5l8.033-13.617
			c-0.379,1.54-0.049,3.225,1.158,4.432c1.253,1.25,3.021,1.58,4.608,1.123L37.5,561.5z M54.443,550.284
			c0.451-1.583,0.122-3.351-1.123-4.599c-1.202-1.203-2.882-1.536-4.419-1.156L62.5,536.5L54.443,550.284z M50,500
			c-27.614,0-50,22.385-50,50c0,27.613,22.386,50,50,50s50-22.387,50-50C100,522.385,77.614,500,50,500z M50,574
			c-13.806,0-25-11.195-25-25c0-13.807,11.194-25,25-25s25,11.193,25,25C75,562.805,63.806,574,50,574z"/>
	</g>
</g>
<g>
	<g>
		<path fill-rule="evenodd" clip-rule="evenodd" fill="#CCCCCC" d="M32.25,811.601c7.943,0.675,12.817,2.522,15.625,4.015v-25.314
			c-2.808-1.498-7.682-3.346-15.625-4.016V811.601z M69.75,786.285c-7.946,0.67-12.82,2.518-15.625,4.016v25.314
			c2.805-1.493,7.679-3.34,15.625-4.015V786.285z M50,750c-27.614,0-50,22.386-50,50s22.386,50,50,50s50-22.386,50-50
			S77.614,750,50,750z M76,817.714c-18.945,0-25,6.286-25,6.286s-6.055-6.286-25-6.286V780c18.75,0,25,6.285,25,6.285
			S57.25,780,76,780V817.714z"/>
	</g>
</g>
<path fill="#CCCCCC" d="M50,1000c-27.891,0-50.5,22.609-50.5,50.5S22.109,1101,50,1101s50.5-22.609,50.5-50.5S77.891,1000,50,1000z
	 M80.508,1068.114L50,1050.5l-30.508,17.614V1050.5L50,1032.886l30.508,17.614V1068.114z"/>
</svg>
