<?xml version="1.0" encoding="utf-8"?>
<!-- Generator: Adobe Illustrator 16.0.0, SVG Export Plug-In . SVG Version: 6.00 Build 0)  -->
<!DOCTYPE svg PUBLIC "-//W3C//DTD SVG 1.1//EN" "http://www.w3.org/Graphics/SVG/1.1/DTD/svg11.dtd">
<svg version="1.1" id="Layer_1" xmlns="http://www.w3.org/2000/svg" xmlns:xlink="http://www.w3.org/1999/xlink" x="0px" y="0px"
	 width="289px" height="67px" viewBox="0 0 289 67" enable-background="new 0 0 289 67" xml:space="preserve">
<path fill="#FFFFFF" d="M54.818,66.492V51.287L15.32,51.295V-0.513H0.04V66.48L54.818,66.492z"/>
<path fill="#FFFFFF" d="M54.424,4.817c-2.902,4.023-2.802,9.145-2.802,9.145V53.26c0,3.691,1.287,6.818,3.861,9.377
	c2.573,2.561,5.715,3.842,9.427,3.842h38.068c3.65,0,6.779-1.295,9.382-3.887c2.604-2.59,3.906-5.701,3.906-9.332l0.002-39.936
	c0,0,0.085-6.391-2.132-8.507c-2.467-2.354-6.931-2.646-6.931-2.646h-5.035l-0.018,49.116H65.722L65.539,2.171h-4.078
	C61.461,2.171,56.711,1.645,54.424,4.817z"/>
<path fill="#FFFFFF" d="M187.94,66.492V51.287l-37.614,0.008V-0.513h-15.281V66.48L187.94,66.492z"/>
<path fill="#FFFFFF" d="M177.837,5.893c-2.578,2.53-3.866,5.619-3.866,9.266v50.478h13.938V39.848h36.688v25.789h14.118V15.159
	c0-3.588-1.305-6.663-3.912-9.222c-2.607-2.559-5.771-3.838-9.487-3.838h-38.036C183.562,2.099,180.414,3.364,177.837,5.893z
	 M187.908,15.865h36.688V26.08h-36.688V15.865z"/>
<path fill="#FFFFFF" d="M282.57,5.937c-2.607-2.559-5.741-3.838-9.396-3.838h-48.917v63.538h51.345c3.717,0,6.88-1.279,9.486-3.838
	c2.608-2.559,3.912-5.633,3.912-9.223V39.428c0-2.941-1.05-5.706-3.146-8.295c0.418-1.059,0.629-2.412,0.629-4.06V15.159
	C286.482,11.571,285.179,8.497,282.57,5.937z M274.883,40.223v11.648h-36.688V40.223H274.883z M272.365,15.865v10.59h-34.171v-10.59
	H272.365z"/>
</svg>
