<?xml version="1.0" encoding="utf-8"?>
<!-- Generator: Adobe Illustrator 16.0.0, SVG Export Plug-In . SVG Version: 6.00 Build 0)  -->
<!DOCTYPE svg PUBLIC "-//W3C//DTD SVG 1.1//EN" "http://www.w3.org/Graphics/SVG/1.1/DTD/svg11.dtd">
<svg version="1.1" id="Layer_1" xmlns="http://www.w3.org/2000/svg" xmlns:xlink="http://www.w3.org/1999/xlink" x="0px" y="0px"
	 width="400px" height="400px" viewBox="0 0 400 400" enable-background="new 0 0 400 400" xml:space="preserve">
<circle fill="#057DBC" cx="200" cy="200" r="200"/>
<path fill="#FFFFFF" d="M331.305,221.149c5.562-8.406,8.982-19.771,8.982-32.292c0-19.343-8.149-35.946-19.777-43.099
	c-6.473-13.971-15.302-26.626-25.98-37.456c-0.88-15.597-16.257-28.016-35.101-28.016c-1.571,0-3.115,0.095-4.632,0.263
	C238.092,72.968,219.539,68.745,200,68.745c-6.731,0-13.343,0.505-19.805,1.472c-5.013-0.953-10.24-1.472-15.624-1.472
	c-34.535,0-62.924,20.79-66.243,47.401c-17.214,20.483-28.353,46.239-30.64,74.5C56.778,201.227,50,215.969,50,232.285
	c0,29.585,22.264,54.005,51.103,57.767c24.307,27.128,59.606,44.203,98.897,44.203c5.988,0,11.883-0.403,17.661-1.172
	c7.307,2.798,15.338,4.345,23.769,4.345c32.282,0,58.704-22.688,60.966-51.431C317.416,267.816,327.682,245.566,331.305,221.149z"/>
<path fill="#057DBC" d="M107.224,220.109c0,4.344-13.465,4.343-10.859,15.636c2.606,11.294,16.071,4.778,19.98,11.729
	c3.909,6.949-1.9,12.105,3.909,15.203c5.809,3.095,11.293,6.948,19.98,7.383s12.162-3.475,19.98-10.424
	c7.818-6.949,2.607-21.284-4.778-26.496c-13.854-9.778-13.031,2.936-13.031,0.906c0-16.941-13.494-0.473-12.408-11.766
	s5.023-6.949,4.155-17.809c-0.869-10.859-12.162-9.555-21.284-3.475C103.749,207.078,107.224,215.766,107.224,220.109z"/>
<g>
	<g>
		<path fill-rule="evenodd" clip-rule="evenodd" fill="none" stroke="#057DBC" stroke-width="10" stroke-miterlimit="10" d="
			M193.139,96.938c26.323,6.334,8.487,40.191,30.588,56.361c16.377,11.982,39.751-20.755,51.524,43.602"/>
		<path fill-rule="evenodd" clip-rule="evenodd" fill="none" stroke="#057DBC" stroke-width="10" stroke-miterlimit="10" d="
			M183.907,122.29c80.194-13.105,41.711,39.759,63.812,55.928c16.376,11.983,29.064-7.094,47.742,10.74"/>
	</g>
	<line fill="none" stroke="#057DBC" stroke-width="3" stroke-miterlimit="10" x1="217.03" y1="138.773" x2="228.964" y2="128.352"/>
	<line fill="none" stroke="#057DBC" stroke-width="3" stroke-miterlimit="10" x1="218.48" y1="143.934" x2="230.414" y2="133.512"/>
	<line fill="none" stroke="#057DBC" stroke-width="3" stroke-miterlimit="10" x1="222.55" y1="147.349" x2="234.483" y2="136.927"/>
	
		<line fill="none" stroke="#057DBC" stroke-width="3" stroke-miterlimit="10" x1="245.974" y1="170.151" x2="257.907" y2="159.729"/>
	<line fill="none" stroke="#057DBC" stroke-width="3" stroke-miterlimit="10" x1="247.424" y1="175.312" x2="259.357" y2="164.89"/>
	
		<line fill="none" stroke="#057DBC" stroke-width="3" stroke-miterlimit="10" x1="251.493" y1="178.727" x2="263.427" y2="168.305"/>
</g>
<g>
	<circle fill="#057DBC" cx="256.747" cy="253.1" r="6.375"/>
	<circle fill="#057DBC" cx="273.283" cy="229.907" r="6.375"/>
	<circle fill="#057DBC" cx="256.747" cy="236.282" r="6.375"/>
	<circle fill="#057DBC" cx="276.033" cy="263.1" r="6.375"/>
	<circle fill="#057DBC" cx="291.533" cy="253.725" r="6.375"/>
	<circle fill="#057DBC" cx="285.158" cy="279.725" r="6.375"/>
	<circle fill="#057DBC" cx="269.658" cy="277.6" r="6.375"/>
	<circle fill="#057DBC" cx="231.431" cy="256.725" r="6.375"/>
	
		<line fill="none" stroke="#057DBC" stroke-width="3" stroke-miterlimit="10" x1="258.158" y1="249.725" x2="271.408" y2="233.225"/>
	
		<line fill="none" stroke="#057DBC" stroke-width="3" stroke-miterlimit="10" x1="256.747" y1="251.225" x2="256.747" y2="240.795"/>
	<line fill="none" stroke="#057DBC" stroke-width="3" stroke-miterlimit="10" x1="234.49" y1="256.725" x2="254.158" y2="253.725"/>
	<line fill="none" stroke="#057DBC" stroke-width="3" stroke-miterlimit="10" x1="273.283" y1="261.6" x2="260.206" y2="253.725"/>
	
		<line fill="none" stroke="#057DBC" stroke-width="3" stroke-miterlimit="10" x1="282.408" y1="276.225" x2="278.783" y2="266.225"/>
	
		<line fill="none" stroke="#057DBC" stroke-width="3" stroke-miterlimit="10" x1="269.658" y1="276.225" x2="274.658" y2="264.787"/>
	
		<line fill="none" stroke="#057DBC" stroke-width="3" stroke-miterlimit="10" x1="287.803" y1="255.225" x2="277.014" y2="264.787"/>
</g>
<line fill="#057DBC" x1="284.549" y1="222.571" x2="284.549" y2="222.57"/>
<line fill="none" x1="285.25" y1="221.551" x2="285.25" y2="216.551"/>
<g>
	<path fill-rule="evenodd" clip-rule="evenodd" fill="#057DBC" d="M201.002,188.987c4.532,0,8.642,1.804,11.652,4.73
		c0.702-0.578,1.36-1.205,1.969-1.878c-3.506-3.446-8.315-5.572-13.621-5.572c-5.305,0-10.114,2.126-13.621,5.572
		c0.609,0.672,1.268,1.3,1.969,1.878C192.361,190.79,196.47,188.987,201.002,188.987L201.002,188.987z M217.213,201.595
		c0.332,1.316,0.511,2.693,0.511,4.114c0,7.656-5.146,14.111-12.171,16.092c0.152,0.896,0.367,1.78,0.646,2.646
		c8.216-2.274,14.244-9.802,14.244-18.737c0-1.687-0.214-3.321-0.617-4.881c-0.584,0.126-1.166,0.282-1.742,0.464
		C217.789,201.386,217.499,201.486,217.213,201.595L217.213,201.595z M196.449,221.801c-7.022-1.984-12.167-8.438-12.167-16.092
		c0-1.421,0.178-2.8,0.511-4.116c-0.289-0.107-0.581-0.21-0.876-0.304c-0.574-0.184-1.153-0.336-1.735-0.463
		c-0.403,1.561-0.618,3.196-0.618,4.883c0,8.935,6.029,16.46,14.241,18.734C196.083,223.58,196.297,222.696,196.449,221.801z"/>
	<path fill-rule="evenodd" clip-rule="evenodd" fill="#057DBC" d="M158.825,218.971c-0.531-8.009,3.409-16.003,10.829-20.287
		c4.645-2.683,9.869-3.455,14.761-2.563c-3.217-3.792-5.159-8.701-5.159-14.063c0-8.569,4.955-15.978,12.154-19.522
		c-5.693,3.343-9.523,9.57-9.523,16.702c0,10.398,8.14,18.874,18.335,19.288v3.021c-1.201,0.224-2.221,0.953-2.835,1.959
		l-0.261-0.046l0.169,0.203c-0.335,0.606-0.526,1.304-0.526,2.047c0,0.504,0.088,0.987,0.25,1.437l-2.596,1.499
		c-5.448-8.653-16.876-11.479-25.895-6.271C162.351,205.937,158.873,212.369,158.825,218.971L158.825,218.971z M201.748,198.526
		c10.212-0.396,18.37-8.879,18.37-19.29c0-7.132-3.828-13.359-9.523-16.702c7.2,3.544,12.155,10.953,12.155,19.522
		c0,5.364-1.941,10.273-5.16,14.064c4.893-0.89,10.113-0.118,14.757,2.563c7.422,4.284,11.36,12.28,10.831,20.288
		c-0.049-6.603-3.526-13.033-9.704-16.599c-9.021-5.208-20.458-2.377-25.9,6.283l-2.593-1.497c0.166-0.454,0.256-0.942,0.256-1.451
		c0-0.743-0.191-1.442-0.526-2.049l0.168-0.2l-0.26,0.045c-0.619-1.016-1.656-1.75-2.87-1.967V198.526L201.748,198.526z
		 M206.812,209.981l-2.604-1.505c-0.761,0.878-1.875,1.441-3.122,1.464l-0.085,0.233l-0.084-0.233
		c-1.252-0.023-2.37-0.591-3.129-1.478l-2.605,1.504c4.735,9.035,1.464,20.317-7.54,25.516c-6.175,3.564-13.483,3.363-19.226,0.104
		c6.67,4.463,15.564,5.05,22.985,0.765c4.645-2.682,7.923-6.816,9.597-11.5c1.676,4.685,4.956,8.821,9.601,11.502
		c7.42,4.283,16.314,3.699,22.985-0.767c-5.742,3.263-13.051,3.465-19.227-0.102C205.36,230.288,202.087,219.016,206.812,209.981z"
		/>
</g>
</svg>
