<?xml version="1.0" encoding="utf-8"?>
<!-- Generator: Adobe Illustrator 16.0.0, SVG Export Plug-In . SVG Version: 6.00 Build 0)  -->
<!DOCTYPE svg PUBLIC "-//W3C//DTD SVG 1.1//EN" "http://www.w3.org/Graphics/SVG/1.1/DTD/svg11.dtd">
<svg version="1.1" xmlns="http://www.w3.org/2000/svg" xmlns:xlink="http://www.w3.org/1999/xlink" x="0px" y="0px" width="400px"
	 height="400px" viewBox="0 0 400 400" enable-background="new 0 0 400 400" xml:space="preserve">
<g id="Layer_1">
	<circle fill="#057DBC" cx="200" cy="200" r="200"/>
	<g>
		<path fill="#057DBC" stroke="#FFFFFF" stroke-width="25" stroke-miterlimit="10" d="M289.143,297.77
			c0,5.572-5.373,10.088-12,10.088H122.858c-6.627,0-12-4.516-12-10.088V121.945c0-5.572,5.373-10.088,12-10.088h154.284
			c6.627,0,12,4.517,12,10.088V297.77z"/>
		<path fill="#FFFFFF" d="M245.43,108.667c0,8.705-7.697,15.761-17.189,15.761h-56.479c-9.494,0-17.189-7.056-17.189-15.761V89.904
			c0-8.705,7.696-15.761,17.189-15.761h56.479c9.492,0,17.189,7.056,17.189,15.761V108.667z"/>
	</g>
	<path fill="#FFFFFF" d="M184.24,287.173c2.191,0,4.064,1.316,4.851,3.185h16.212c0.948-0.916,2.248-1.484,3.687-1.484
		c1.438,0,2.738,0.568,3.686,1.484h20.721c0.948-0.916,2.248-1.484,3.687-1.484c1.438,0,2.738,0.568,3.686,1.484h27.456
		c0.588-1.397,1.793-2.463,3.277-2.923v-5.312c-2.9,0-5.25-2.303-5.25-5.141c0-2.84,2.35-5.141,5.25-5.141v-14.387
		c-0.614,0.247-1.284,0.388-1.988,0.388c-2.9,0-5.25-2.303-5.25-5.141c0-2.84,2.35-5.141,5.25-5.141
		c0.704,0,1.374,0.141,1.988,0.387v-14.017c-2.126-0.658-3.677-2.582-3.677-4.88c0-2.3,1.551-4.223,3.677-4.88v-13.06
		c-0.574,2.229-2.618,3.887-5.073,3.887c-2.9,0-5.25-2.303-5.25-5.141c0-2.84,2.35-5.141,5.25-5.141
		c2.455,0,4.499,1.656,5.073,3.886v-24.441c-0.947,0.911-2.243,1.477-3.676,1.477c-2.9,0-5.25-2.302-5.25-5.141
		s2.35-5.141,5.25-5.141c1.433,0,2.729,0.565,3.676,1.477v-16.197c-0.614,0.247-1.284,0.387-1.988,0.387
		c-2.9,0-5.25-2.302-5.25-5.141s2.35-5.141,5.25-5.141c0.704,0,1.374,0.141,1.988,0.387v-16.893
		c-2.125-0.658-3.676-2.581-3.676-4.879h-12.898c0.624,0.846,1.002,1.877,1.002,3c0,2.839-2.35,5.141-5.249,5.141
		c-2.9,0-5.25-2.302-5.25-5.141c0-1.123,0.378-2.154,1.002-3h-13.098c0.154,0.485,0.262,0.991,0.262,1.526
		c0,2.839-2.35,5.141-5.249,5.141c-2.9,0-5.25-2.302-5.25-5.141c0-0.535,0.107-1.041,0.262-1.526h-14.632
		c0.154,0.485,0.262,0.991,0.262,1.526c0,2.839-2.35,5.141-5.25,5.141c-2.899,0-5.25-2.302-5.25-5.141
		c0-0.535,0.107-1.041,0.262-1.526H181.56c0.155,0.485,0.262,0.991,0.262,1.526c0,2.839-2.351,5.141-5.25,5.141
		s-5.25-2.302-5.25-5.141c0-0.535,0.107-1.041,0.262-1.526h-15.512c0,2.839-2.351,5.141-5.25,5.141s-5.25-2.302-5.25-5.141h-11.821
		c0,2.839-2.351,5.141-5.25,5.141v30.373c0.865-0.614,1.92-0.987,3.071-0.987c2.899,0,5.25,2.302,5.25,5.141
		s-2.351,5.141-5.25,5.141c-1.15,0-2.206-0.373-3.071-0.987v31.963c0-2.839,2.351-5.141,5.25-5.141s5.25,2.302,5.25,5.141
		s-2.351,5.141-5.25,5.141s-5.25-2.302-5.25-5.141v23.909c2.899,0,5.25,2.303,5.25,5.141c0,2.84-2.351,5.141-5.25,5.141v8.229
		c2.899,0,5.25,2.303,5.25,5.141c0,2.84-2.351,5.141-5.25,5.141v9.335c1.808,0.812,3.071,2.59,3.071,4.664
		c0,2.076-1.263,3.853-3.071,4.665v9.188c1.808,0.812,3.071,2.59,3.071,4.664h23c0-2.838,2.351-5.141,5.25-5.141
		s5.25,2.303,5.25,5.141h14.316C180.174,288.489,182.048,287.173,184.24,287.173z M179.584,226.999c0-2.839,2.35-5.141,5.25-5.141
		c2.899,0,5.249,2.302,5.249,5.141s-2.35,5.141-5.249,5.141C181.934,232.14,179.584,229.838,179.584,226.999z M181.822,244.472
		c0,2.84-2.351,5.141-5.25,5.141s-5.25-2.301-5.25-5.141c0-2.838,2.351-5.141,5.25-5.141S181.822,241.634,181.822,244.472z
		 M192.322,264.819c-2.9,0-5.25-2.302-5.25-5.141s2.35-5.141,5.25-5.141c2.899,0,5.249,2.302,5.249,5.141
		S195.222,264.819,192.322,264.819z M194.739,215.422c-2.9,0-5.25-2.302-5.25-5.141s2.35-5.141,5.25-5.141
		c2.899,0,5.249,2.302,5.249,5.141S197.639,215.422,194.739,215.422z M199.989,182.368c-2.9,0-5.25-2.302-5.25-5.141
		s2.35-5.141,5.25-5.141c2.899,0,5.249,2.302,5.249,5.141S202.889,182.368,199.989,182.368z M207.098,185.638
		c2.899,0,5.249,2.302,5.249,5.141s-2.35,5.141-5.249,5.141c-2.9,0-5.25-2.302-5.25-5.141S204.197,185.638,207.098,185.638z
		 M203.74,280.077c-2.901,0-5.25-2.302-5.25-5.141s2.35-5.141,5.25-5.141c2.898,0,5.248,2.302,5.248,5.141
		S206.639,280.077,203.74,280.077z M203.739,247.561c-2.9,0-5.25-2.302-5.25-5.141s2.35-5.141,5.25-5.141
		c2.899,0,5.249,2.302,5.249,5.141S206.639,247.561,203.739,247.561z M207.098,226.999c-2.9,0-5.25-2.302-5.25-5.141
		s2.35-5.141,5.25-5.141c2.899,0,5.249,2.302,5.249,5.141S209.997,226.999,207.098,226.999z M214.933,264.82
		c-2.9,0-5.25-2.303-5.25-5.141c0-2.84,2.35-5.141,5.25-5.141c2.899,0,5.249,2.301,5.249,5.141
		C220.182,262.518,217.832,264.82,214.933,264.82z M226.584,285.219c-2.9,0-5.25-2.303-5.25-5.141c0-2.84,2.35-5.141,5.25-5.141
		c2.899,0,5.249,2.301,5.249,5.141C231.833,282.916,229.483,285.219,226.584,285.219z M230.681,221.857
		c2.899,0,5.249,2.301,5.249,5.141c0,2.838-2.35,5.141-5.249,5.141c-2.9,0-5.25-2.303-5.25-5.141
		C225.431,224.158,227.78,221.857,230.681,221.857z M225.431,190.779c-2.9,0-5.25-2.302-5.25-5.141s2.35-5.141,5.25-5.141
		c2.899,0,5.249,2.302,5.249,5.141S228.33,190.779,225.431,190.779z M228.347,240.857c2.899,0,5.249,2.301,5.249,5.141
		c0,2.838-2.35,5.141-5.249,5.141c-2.9,0-5.25-2.303-5.25-5.141C223.097,243.158,225.446,240.857,228.347,240.857z M235.93,268.122
		c-2.9,0-5.25-2.303-5.25-5.141c0-2.84,2.35-5.141,5.25-5.141c2.899,0,5.249,2.301,5.249,5.141
		C241.179,265.819,238.829,268.122,235.93,268.122z M240.181,214.998c0-2.84,2.35-5.141,5.25-5.141c2.899,0,5.249,2.301,5.249,5.141
		c0,2.838-2.35,5.141-5.249,5.141C242.53,220.139,240.181,217.836,240.181,214.998z M242.929,244.473c0-2.84,2.35-5.141,5.25-5.141
		c2.899,0,5.249,2.301,5.249,5.141c0,2.838-2.35,5.141-5.249,5.141C245.278,249.613,242.929,247.311,242.929,244.473z
		 M253.428,287.263c-2.9,0-5.25-2.303-5.25-5.141c0-2.84,2.35-5.141,5.25-5.141c2.899,0,5.249,2.301,5.249,5.141
		C258.677,284.96,256.327,287.263,253.428,287.263z M253.428,268.122c-2.9,0-5.25-2.303-5.25-5.141c0-2.84,2.35-5.141,5.25-5.141
		c2.899,0,5.249,2.301,5.249,5.141C258.677,265.819,256.327,268.122,253.428,268.122z M261.179,229.051
		c0,2.838-2.35,5.141-5.249,5.141c-2.9,0-5.25-2.303-5.25-5.141c0-2.84,2.35-5.141,5.25-5.141
		C258.829,223.91,261.179,226.211,261.179,229.051z M255.93,201.061c-2.9,0-5.25-2.302-5.25-5.141s2.35-5.141,5.25-5.141
		c2.899,0,5.249,2.302,5.249,5.141S258.829,201.061,255.93,201.061z M261.179,137.163c2.899,0,5.249,2.302,5.249,5.141
		s-2.35,5.141-5.249,5.141c-2.9,0-5.25-2.302-5.25-5.141S258.278,137.163,261.179,137.163z M255.93,161.024
		c2.899,0,5.249,2.302,5.249,5.141s-2.35,5.141-5.249,5.141c-2.9,0-5.25-2.302-5.25-5.141S253.029,161.024,255.93,161.024z
		 M248.179,147.444c2.899,0,5.249,2.302,5.249,5.141s-2.35,5.141-5.249,5.141c-2.9,0-5.25-2.302-5.25-5.141
		S245.278,147.444,248.179,147.444z M245.43,175.357c2.899,0,5.249,2.302,5.249,5.141s-2.35,5.141-5.249,5.141
		c-2.9,0-5.25-2.302-5.25-5.141S242.529,175.357,245.43,175.357z M241.179,200c0,2.838-2.35,5.141-5.249,5.141
		c-2.9,0-5.25-2.303-5.25-5.141c0-2.839,2.35-5.141,5.25-5.141C238.829,194.859,241.179,197.161,241.179,200z M233.597,139.639
		c2.899,0,5.249,2.302,5.249,5.141s-2.35,5.141-5.249,5.141c-2.9,0-5.25-2.302-5.25-5.141S230.696,139.639,233.597,139.639z
		 M231.833,163.883c2.899,0,5.249,2.302,5.249,5.141s-2.35,5.141-5.249,5.141c-2.9,0-5.25-2.302-5.25-5.141
		S228.933,163.883,231.833,163.883z M221.334,150.743c2.899,0,5.249,2.302,5.249,5.141s-2.35,5.141-5.249,5.141
		c-2.9,0-5.25-2.302-5.25-5.141S218.434,150.743,221.334,150.743z M220.182,204.717c2.899,0,5.249,2.302,5.249,5.141
		s-2.35,5.141-5.249,5.141c-2.9,0-5.25-2.302-5.25-5.141S217.281,204.717,220.182,204.717z M208.989,158.743
		c2.899,0,5.249,2.302,5.249,5.141s-2.35,5.141-5.249,5.141c-2.9,0-5.25-2.302-5.25-5.141S206.089,158.743,208.989,158.743z
		 M199.168,142.303c2.899,0,5.249,2.302,5.249,5.141s-2.35,5.141-5.249,5.141c-2.9,0-5.25-2.302-5.25-5.141
		S196.268,142.303,199.168,142.303z M192.321,194.859c0,2.839-2.35,5.141-5.249,5.141c-2.9,0-5.25-2.302-5.25-5.141
		s2.35-5.141,5.25-5.141C189.972,189.718,192.321,192.02,192.321,194.859z M190.083,163.883c0,2.839-2.35,5.141-5.249,5.141
		c-2.9,0-5.25-2.302-5.25-5.141s2.35-5.141,5.25-5.141C187.734,158.743,190.083,161.044,190.083,163.883z M181.822,139.639
		c2.899,0,5.25,2.302,5.25,5.141s-2.351,5.141-5.25,5.141s-5.25-2.302-5.25-5.141S178.922,139.639,181.822,139.639z
		 M176.572,175.357c2.899,0,5.25,2.302,5.25,5.141s-2.351,5.141-5.25,5.141s-5.25-2.302-5.25-5.141S173.672,175.357,176.572,175.357
		z M176.572,214.998c0,2.839-2.351,5.141-5.25,5.141s-5.25-2.302-5.25-5.141s2.351-5.141,5.25-5.141
		S176.572,212.159,176.572,214.998z M165.072,202.972c-2.899,0-5.25-2.302-5.25-5.141s2.351-5.141,5.25-5.141s5.25,2.302,5.25,5.141
		S167.971,202.972,165.072,202.972z M168.822,166.165c0,2.839-2.351,5.141-5.25,5.141s-5.25-2.302-5.25-5.141
		s2.351-5.141,5.25-5.141S168.822,163.326,168.822,166.165z M159.822,144.779c2.899,0,5.25,2.302,5.25,5.141
		s-2.351,5.141-5.25,5.141s-5.25-2.302-5.25-5.141S156.922,144.779,159.822,144.779z M154.572,177.357
		c2.899,0,5.25,2.302,5.25,5.141s-2.351,5.141-5.25,5.141s-5.25-2.302-5.25-5.141S151.672,177.357,154.572,177.357z
		 M147.822,209.857c0-2.838,2.351-5.141,5.25-5.141s5.25,2.303,5.25,5.141c0,2.84-2.351,5.141-5.25,5.141
		S147.822,212.697,147.822,209.857z M150.822,247.56c0,2.84-2.351,5.141-5.25,5.141s-5.25-2.301-5.25-5.141
		c0-2.838,2.351-5.141,5.25-5.141S150.822,244.722,150.822,247.56z M150.822,158.743c0,2.839-2.351,5.141-5.25,5.141
		s-5.25-2.302-5.25-5.141s2.351-5.141,5.25-5.141S150.822,155.904,150.822,158.743z M135.072,142.434
		c0-2.839,2.351-5.141,5.25-5.141s5.25,2.302,5.25,5.141s-2.351,5.141-5.25,5.141S135.072,145.273,135.072,142.434z
		 M136.822,192.779c-2.899,0-5.25-2.302-5.25-5.141s2.351-5.141,5.25-5.141s5.25,2.302,5.25,5.141S139.721,192.779,136.822,192.779z
		 M133.751,221.857c0-2.838,2.351-5.141,5.25-5.141s5.25,2.303,5.25,5.141c0,2.84-2.351,5.141-5.25,5.141
		S133.751,224.697,133.751,221.857z M144.251,285.218c-2.899,0-5.25-2.301-5.25-5.141c0-2.838,2.351-5.141,5.25-5.141
		s5.25,2.303,5.25,5.141C149.501,282.917,147.15,285.218,144.251,285.218z M147.822,269.96c-2.899,0-5.25-2.301-5.25-5.141
		c0-2.838,2.351-5.141,5.25-5.141s5.25,2.303,5.25,5.141C153.072,267.659,150.721,269.96,147.822,269.96z M154.572,237.279
		c-2.899,0-5.25-2.301-5.25-5.141c0-2.838,2.351-5.141,5.25-5.141s5.25,2.303,5.25,5.141
		C159.822,234.979,157.471,237.279,154.572,237.279z M165.072,264.819c-2.899,0-5.25-2.301-5.25-5.141
		c0-2.838,2.351-5.141,5.25-5.141s5.25,2.303,5.25,5.141C170.322,262.519,167.971,264.819,165.072,264.819z M170.322,274.937
		c0-2.838,2.351-5.141,5.25-5.141s5.25,2.303,5.25,5.141c0,2.84-2.351,5.141-5.25,5.141S170.322,277.776,170.322,274.937z"/>
	<polygon fill="#057DBC" stroke="#FFFFFF" stroke-width="5" stroke-miterlimit="10" points="236.832,145.098 163.168,214.583 
		196.431,214.923 163.168,272.901 236.832,201.918 204.418,201.839 	"/>
</g>
<g id="Layer_2">
</g>
</svg>
