<?xml version="1.0" encoding="utf-8"?>
<!-- Generator: Adobe Illustrator 16.0.0, SVG Export Plug-In . SVG Version: 6.00 Build 0)  -->
<!DOCTYPE svg PUBLIC "-//W3C//DTD SVG 1.1//EN" "http://www.w3.org/Graphics/SVG/1.1/DTD/svg11.dtd">
<svg version="1.1" id="Layer_1" xmlns="http://www.w3.org/2000/svg" xmlns:xlink="http://www.w3.org/1999/xlink" x="0px" y="0px"
	 width="49.25px" height="1100px" viewBox="0 0 49.25 1100" enable-background="new 0 0 49.25 1100" xml:space="preserve">
<path fill="#3B5999" d="M24.608,0C11.009,0-0.017,11.027-0.017,24.625c0,13.6,11.025,24.623,24.625,24.623
	s24.625-11.023,24.625-24.623C49.233,11.027,38.208,0,24.608,0z M31.127,24.521h-4.264c0,6.814,0,15.207,0,15.207h-6.321
	c0,0,0-8.307,0-15.207h-3.005v-5.369h3.005v-3.479c0-2.49,1.183-6.377,6.379-6.377l4.68,0.018v5.215c0,0-2.846,0-3.398,0
	c-0.554,0-1.339,0.277-1.339,1.461v3.162h4.817L31.127,24.521z"/>
<path fill="#27AAE1" d="M24.626,100.488c-13.6,0-24.625,11.027-24.625,24.625c0,13.6,11.025,24.623,24.625,24.623
	s24.623-11.023,24.623-24.623C49.249,111.515,38.226,100.488,24.626,100.488z M37.031,120.148c0.012,0.267,0.018,0.534,0.018,0.803
	c0,8.201-6.242,17.657-17.657,17.657c-3.504,0-6.767-1.027-9.513-2.788c0.486,0.057,0.979,0.086,1.48,0.086
	c2.908,0,5.584-0.992,7.708-2.656c-2.715-0.051-5.007-1.845-5.796-4.31c0.378,0.073,0.767,0.111,1.167,0.111
	c0.566,0,1.114-0.075,1.635-0.218c-2.84-0.57-4.979-3.079-4.979-6.084c0-0.027,0-0.053,0.001-0.079
	c0.836,0.465,1.793,0.744,2.811,0.777c-1.666-1.115-2.761-3.013-2.761-5.166c0-1.138,0.306-2.204,0.84-3.12
	c3.061,3.755,7.634,6.225,12.792,6.483c-0.106-0.454-0.161-0.928-0.161-1.414c0-3.427,2.779-6.205,6.206-6.205
	c1.785,0,3.397,0.754,4.529,1.959c1.415-0.277,2.742-0.795,3.941-1.506c-0.464,1.45-1.448,2.666-2.729,3.434
	c1.256-0.15,2.452-0.484,3.564-0.978C39.297,118.179,38.243,119.273,37.031,120.148z"/>
<g>
	<path fill="#027BB6" d="M24.625,200C11.025,200,0,211.025,0,224.625c0,13.602,11.025,24.625,24.625,24.625
		c13.599,0,24.624-11.023,24.624-24.625C49.249,211.025,38.224,200,24.625,200z M38.34,236.586c0,1.096-0.909,1.982-2.031,1.982
		H12.893c-1.123,0-2.031-0.887-2.031-1.982v-23.689c0-1.094,0.908-1.982,2.031-1.982h23.416c1.122,0,2.031,0.889,2.031,1.982
		V236.586z"/>
	<path fill="#4875B4" d="M29.378,221.285c-2.202,0-3.188,1.209-3.741,2.061v0.041h-0.027c0.01-0.012,0.02-0.027,0.027-0.041v-1.768
		h-4.149c0.054,1.17,0,12.484,0,12.484h4.149v-6.973c0-0.375,0.027-0.744,0.137-1.012c0.301-0.744,0.984-1.52,2.13-1.52
		c1.503,0,2.103,1.146,2.103,2.824v6.68h4.15v-7.158C34.156,223.068,32.108,221.285,29.378,221.285z"/>
	<path fill="#4875B4" d="M17.143,215.557c-1.419,0-2.348,0.934-2.348,2.158c0,1.197,0.9,2.158,2.293,2.158h0.027
		c1.447,0,2.349-0.961,2.349-2.158C19.437,216.49,18.562,215.557,17.143,215.557z"/>
	<rect x="15.04" y="221.578" fill="#4875B4" width="4.151" height="12.484"/>
</g>
<g>
	<path fill="#CB2128" d="M24.627,300c-13.6,0-24.625,11.023-24.625,24.624c0,10.082,6.063,18.745,14.739,22.553
		c-0.069-1.72-0.013-3.783,0.429-5.654c0.473-1.999,3.168-13.417,3.168-13.417s-0.787-1.572-0.787-3.896
		c0-3.649,2.115-6.374,4.75-6.374c2.239,0,3.321,1.682,3.321,3.696c0,2.252-1.437,5.619-2.175,8.738
		c-0.616,2.612,1.31,4.743,3.887,4.743c4.666,0,7.808-5.992,7.808-13.092c0-5.396-3.635-9.437-10.245-9.437
		c-7.471,0-12.123,5.57-12.123,11.792c0,2.146,0.633,3.659,1.623,4.83c0.455,0.538,0.519,0.755,0.354,1.372
		c-0.117,0.453-0.389,1.544-0.502,1.977c-0.164,0.624-0.669,0.847-1.232,0.617c-3.44-1.405-5.043-5.173-5.043-9.408
		c0-6.994,5.899-15.383,17.6-15.383c9.4,0,15.588,6.804,15.588,14.106c0,9.659-5.37,16.876-13.286,16.876
		c-2.659,0-5.159-1.438-6.016-3.069c0,0-1.43,5.674-1.732,6.769c-0.522,1.899-1.544,3.797-2.479,5.275
		c2.215,0.654,4.554,1.01,6.979,1.01c13.597,0,24.622-11.024,24.622-24.624C49.249,311.023,38.224,300,24.627,300z"/>
</g>
<g>
	<path fill="#DD4B38" d="M20.041,422.803c0.629,0,1.159-0.248,1.569-0.717c0.645-0.733,0.929-1.937,0.761-3.216
		c-0.301-2.286-1.932-4.185-3.637-4.235l-0.068-0.001c-0.604,0-1.142,0.247-1.552,0.716c-0.636,0.725-0.903,1.871-0.735,3.146
		c0.299,2.283,1.964,4.256,3.634,4.307H20.041z"/>
	<path fill="#DD4B38" d="M21.901,429.688c-0.167-0.113-0.342-0.232-0.521-0.355c-0.526-0.161-1.084-0.246-1.655-0.253h-0.071
		c-2.625,0-4.929,1.591-4.929,3.405c0,1.972,1.972,3.518,4.491,3.518c3.322,0,5.006-1.145,5.006-3.404
		c0-0.214-0.026-0.435-0.077-0.655C23.921,431.064,23.117,430.518,21.901,429.688z"/>
	<path fill="#DD4B38" d="M24.626,400c-13.6,0-24.625,11.023-24.625,24.623s11.025,24.625,24.625,24.625
		c13.599,0,24.624-11.025,24.624-24.625S38.225,400,24.626,400z M22.386,438.021c-0.981,0.283-2.041,0.428-3.154,0.428
		c-1.237,0-2.43-0.143-3.539-0.424c-2.15-0.542-3.741-1.571-4.481-2.896c-0.319-0.573-0.482-1.184-0.482-1.816
		c0-0.652,0.157-1.312,0.464-1.966c1.179-2.511,4.283-4.197,7.722-4.197c0.035,0,0.067,0,0.1-0.001
		c-0.28-0.491-0.416-1.001-0.416-1.536c0-0.269,0.035-0.54,0.105-0.815c-3.607-0.084-6.307-2.725-6.307-6.207
		c0-2.46,1.966-4.854,4.776-5.824c0.842-0.29,1.7-0.438,2.544-0.438h7.713c0.263,0,0.494,0.17,0.576,0.42
		c0.083,0.251-0.008,0.524-0.222,0.679l-1.724,1.248c-0.104,0.075-0.229,0.115-0.357,0.115h-0.617
		c0.798,0.956,1.266,2.316,1.266,3.849c0,1.69-0.855,3.289-2.41,4.506c-1.202,0.936-1.25,1.191-1.25,1.729
		c0.016,0.294,0.854,1.252,1.775,1.904c2.152,1.522,2.952,3.014,2.952,5.507C27.419,434.883,25.443,437.134,22.386,438.021z
		 M39.809,424.79c0,0.335-0.273,0.606-0.607,0.606h-4.384v4.385c0,0.335-0.271,0.606-0.606,0.606h-1.248
		c-0.336,0-0.607-0.271-0.607-0.606v-4.385h-4.385c-0.333,0-0.605-0.271-0.605-0.606v-1.249c0-0.334,0.272-0.607,0.605-0.607h4.385
		v-4.383c0-0.336,0.271-0.607,0.607-0.607h1.248c0.335,0,0.606,0.271,0.606,0.607v4.383h4.384c0.334,0,0.607,0.273,0.607,0.607
		V424.79z"/>
</g>
<g>
	<path fill="#EF3B39" d="M27.428,524.977c0-2.873-1.12-5.502-2.842-7.535c-1.724,2.033-2.764,4.662-2.764,7.535
		c0,2.872,1.041,5.501,2.763,7.532h0.001C26.307,530.478,27.428,527.849,27.428,524.977z"/>
	<path fill="#085FAC" d="M24.625,500c-13.598,0-24.62,11.023-24.62,24.621s11.022,24.621,24.62,24.621s24.621-11.023,24.621-24.621
		S38.223,500,24.625,500z M6.779,532.511c-1.723-2.033-2.764-4.662-2.764-7.534c0-5.78,4.205-10.575,9.723-11.502v7.381
		C13.719,526.062,10.863,530.533,6.779,532.511z M15.682,536.642c-2.029,0-3.938-0.52-5.6-1.43c2.704-1.71,4.875-4.28,5.602-7.29
		c0.726,3.008,2.896,5.58,5.6,7.288C19.621,536.122,17.713,536.642,15.682,536.642z M24.586,532.511l-0.001-0.002
		c-4.099-1.984-6.958-6.48-6.958-11.708l0,0v-7.326c2.774,0.467,5.216,1.912,6.959,3.967c1.742-2.055,4.265-3.5,7.039-3.967v7.381
		C31.604,526.062,28.67,530.533,24.586,532.511z M33.569,536.642c-2.03,0-3.938-0.52-5.601-1.43c2.703-1.71,4.875-4.28,5.601-7.29
		c0.727,3.008,2.896,5.58,5.601,7.288C37.509,536.122,35.6,536.642,33.569,536.642z M35.515,520.801v-7.326
		c5.516,0.927,9.72,5.722,9.72,11.502c0,2.872-1.04,5.501-2.762,7.532C38.375,530.526,35.515,526.028,35.515,520.801z"/>
</g>
<g>
	<path fill="#E51D2E" d="M21.494,628.714c-0.391-0.156-0.879,0.033-1.108,0.416c-0.223,0.387-0.101,0.828,0.292,0.988
		c0.398,0.164,0.906-0.025,1.137-0.418C22.033,629.304,21.892,628.858,21.494,628.714z"/>
	<path fill="#E51D2E" d="M24.625,600C11.025,600,0,611.025,0,624.625s11.025,24.625,24.625,24.625s24.625-11.025,24.625-24.625
		S38.225,600,24.625,600z M21.43,639.87c-8.239,0-16.661-3.992-16.661-10.559c0-3.434,2.175-7.405,5.921-11.151
		c5.002-5.001,10.836-7.279,13.029-5.084c0.968,0.967,1.062,2.641,0.439,4.641c-0.324,1.008,0.944,0.449,0.944,0.452
		c4.044-1.693,7.571-1.792,8.86,0.05c0.688,0.982,0.621,2.357-0.012,3.953c-0.293,0.734,0.092,0.849,0.65,1.017
		c2.277,0.706,4.814,2.416,4.814,5.426C39.416,633.595,32.229,639.87,21.43,639.87z M36.344,618.988
		c0.268-0.822,0.1-1.762-0.52-2.45c-0.623-0.687-1.539-0.948-2.385-0.769v-0.002c-0.707,0.154-1.4-0.299-1.553-1.004
		c-0.152-0.707,0.299-1.404,1.008-1.555c1.729-0.367,3.604,0.168,4.873,1.576v-0.001c1.271,1.408,1.611,3.325,1.068,5.01
		c-0.223,0.688-0.961,1.063-1.648,0.843c-0.688-0.223-1.064-0.961-0.842-1.648H36.344z M43.973,621.457
		c-0.26,0.799-1.115,1.236-1.916,0.978c-0.799-0.259-1.236-1.114-0.979-1.915h-0.002c0.795-2.457,0.291-5.258-1.561-7.312
		c-1.855-2.053-4.588-2.838-7.115-2.302c-0.82,0.176-1.631-0.35-1.805-1.17c-0.176-0.819,0.35-1.629,1.17-1.804
		c3.553-0.756,7.4,0.347,10.008,3.238c2.609,2.889,3.312,6.826,2.199,10.281C43.973,621.454,43.973,621.457,43.973,621.457z"/>
	<path fill="#E51D2E" d="M19.906,621.887c-6.573,0.65-11.559,4.675-11.132,8.991c0.428,4.316,6.103,7.287,12.677,6.639
		s11.557-4.676,11.133-8.994C32.156,624.208,26.48,621.236,19.906,621.887z M25.674,632.067c-1.342,3.033-5.199,4.652-8.475,3.596
		c-3.16-1.021-4.498-4.141-3.114-6.953c1.358-2.756,4.895-4.316,8.024-3.502C25.346,626.046,26.998,629.099,25.674,632.067z"/>
	<path fill="#E51D2E" d="M18.986,629.755c-1.02-0.428-2.335,0.012-2.963,0.996c-0.637,0.99-0.338,2.168,0.672,2.629
		c1.027,0.467,2.389,0.023,3.023-0.99C20.344,631.364,20.015,630.192,18.986,629.755z"/>
</g>
<path fill="#067DBF" d="M24.625,700C11.025,700,0,711.025,0,724.625s11.025,24.625,24.625,24.625s24.625-11.025,24.625-24.625
	S38.225,700,24.625,700z M41,737H9v-15.68l16.086,7.559L41,721.344V737z M41,716.918l-15.922,7.539L9,716.906V713h32V716.918z"/>
<g>
	<path fill="#32506D" d="M24.625,801.375C11.025,801.375,0,812.4,0,826s11.025,24.625,24.625,24.625S49.25,839.6,49.25,826
		S38.225,801.375,24.625,801.375z M37,842.375H13v-32h14l10,9.998V842.375z"/>
	<polygon fill="#32506D" points="24.918,822.375 32.918,822.375 24.918,814.375 	"/>
</g>
<g>
	<polygon fill="#A72822" points="16.687,920.479 16.687,935.91 23.142,935.91 23.142,929.455 27.444,929.455 27.444,935.91 
		33.899,935.91 33.899,920.479 25.293,914.394 	"/>
	<path fill="#A72822" d="M24.918,900c-13.6,0-24.625,11.025-24.625,24.625s11.025,24.625,24.625,24.625s24.625-11.025,24.625-24.625
		S38.518,900,24.918,900z M38.203,923v17.213h-25.82V923H8.08l17.213-17.213L42.506,923H38.203z"/>
</g>
<g>
	<g>
		<path fill="#666766" d="M16.269,1016.602h-1.051v5.654h1.081c0.778,0,1.353-0.264,1.723-0.791
			c0.369-0.526,0.555-1.217,0.555-2.069c0-1.01-0.18-1.728-0.541-2.154C17.675,1016.815,17.086,1016.602,16.269,1016.602z"/>
		<path fill="#666766" d="M24.793,1000c-13.531,0-24.5,10.969-24.5,24.5s10.969,24.5,24.5,24.5c13.531,0,24.5-10.969,24.5-24.5
			S38.324,1000,24.793,1000z M24.738,1036.122h-5.783c-0.136-0.313-0.238-0.685-0.307-1.11s-0.117-0.853-0.146-1.279
			c-0.029-0.426-0.049-0.836-0.058-1.229c-0.01-0.393-0.015-0.712-0.015-0.959v-1.615c0-0.674-0.029-1.234-0.088-1.683
			c-0.058-0.449-0.161-0.803-0.307-1.061s-0.331-0.438-0.555-0.538c-0.224-0.102-0.501-0.152-0.833-0.152h-1.431v9.626H9.785v-24.03
			h8.499c1.032,0,1.913,0.157,2.643,0.472c0.73,0.314,1.324,0.757,1.781,1.329s0.789,1.251,0.993,2.036
			c0.204,0.785,0.307,1.638,0.307,2.558c0,1.615-0.283,2.917-0.847,3.904c-0.565,0.987-1.47,1.594-2.716,1.817v0.067
			c1.304,0.135,2.2,0.662,2.687,1.582s0.73,2.188,0.73,3.803v2.053c0,0.314,0,0.64,0,0.977c0,0.336,0.009,0.656,0.029,0.959
			c0.019,0.303,0.048,0.578,0.087,0.824c0.039,0.247,0.087,0.438,0.146,0.572c0.078,0.135,0.156,0.264,0.234,0.388
			c0.077,0.123,0.204,0.241,0.379,0.353V1036.122z"/>
	</g>
	<path fill="#91C83E" d="M40.566,1023.063v13.059h-3.68l-0.117-2.12h-0.059c-0.174,0.517-0.424,0.942-0.744,1.278
		c-0.322,0.337-0.682,0.59-1.08,0.758c-0.4,0.168-0.828,0.286-1.285,0.354c-0.459,0.067-0.92,0.101-1.387,0.101
		c-1.383,0-2.475-0.264-3.271-0.791c-0.799-0.526-1.402-1.317-1.811-2.372c-0.409-1.055-0.668-2.356-0.774-3.904
		c-0.107-1.549-0.161-3.32-0.161-5.317c0-2.02,0.103-3.804,0.307-5.352c0.205-1.548,0.594-2.85,1.168-3.904s1.369-1.856,2.381-2.406
		s2.316-0.824,3.914-0.824c0.953,0,1.834,0.146,2.643,0.438c0.807,0.292,1.504,0.763,2.088,1.413
		c0.584,0.651,1.041,1.486,1.373,2.508c0.33,1.021,0.496,2.261,0.496,3.719h-5.256c0-1.279-0.098-2.21-0.293-2.794
		c-0.195-0.694-0.613-1.043-1.256-1.043c-0.447,0-0.803,0.124-1.066,0.37c-0.262,0.247-0.457,0.685-0.584,1.312
		c-0.127,0.629-0.209,1.476-0.248,2.541c-0.039,1.066-0.059,2.406-0.059,4.022c0,1.615,0.02,2.956,0.059,4.021
		s0.121,1.913,0.248,2.541s0.312,1.065,0.555,1.312c0.244,0.247,0.57,0.37,0.979,0.37c0.293,0,0.551-0.067,0.773-0.202
		c0.225-0.135,0.414-0.387,0.57-0.757s0.277-0.886,0.365-1.548s0.131-1.509,0.131-2.541h-1.928v-4.241H40.566z"/>
</g>
</svg>
